<mxfile host="app.diagrams.net" modified="2021-12-29T18:58:58.019Z" agent="5.0 (Windows NT 10.0; Win64; x64) AppleWebKit/537.36 (KHTML, like Gecko) Chrome/96.0.4664.110 Safari/537.36 Edg/96.0.1054.62" etag="vg_oVg3bhlbaWqQ_2Z-8" version="16.1.0" type="github">
  <diagram id="2-V__d1XPRfBeipLiVIh" name="Page-1">
    <mxGraphModel dx="1021" dy="1667" grid="1" gridSize="10" guides="1" tooltips="1" connect="1" arrows="1" fold="1" page="1" pageScale="1" pageWidth="850" pageHeight="1100" math="0" shadow="0">
      <root>
        <mxCell id="0" />
        <mxCell id="1" parent="0" />
        <mxCell id="XcRsSz3dHbmi5cUPa2XA-5" style="edgeStyle=orthogonalEdgeStyle;rounded=0;orthogonalLoop=1;jettySize=auto;html=1;exitX=0.5;exitY=0;exitDx=0;exitDy=0;exitPerimeter=0;entryX=0;entryY=0.5;entryDx=0;entryDy=0;" parent="1" source="XcRsSz3dHbmi5cUPa2XA-1" target="XcRsSz3dHbmi5cUPa2XA-4" edge="1">
          <mxGeometry relative="1" as="geometry" />
        </mxCell>
        <mxCell id="XcRsSz3dHbmi5cUPa2XA-1" value="guest" style="shape=umlActor;verticalLabelPosition=bottom;verticalAlign=top;html=1;outlineConnect=0;fillColor=#ffe6cc;strokeColor=#d79b00;" parent="1" vertex="1">
          <mxGeometry x="120" y="-60" width="30" height="60" as="geometry" />
        </mxCell>
        <mxCell id="XcRsSz3dHbmi5cUPa2XA-2" value="Hotel Reservation System" style="swimlane;" parent="1" vertex="1">
          <mxGeometry x="190" y="-160" width="882" height="570" as="geometry" />
        </mxCell>
        <mxCell id="XcRsSz3dHbmi5cUPa2XA-4" value="Login" style="ellipse;whiteSpace=wrap;html=1;" parent="XcRsSz3dHbmi5cUPa2XA-2" vertex="1">
          <mxGeometry x="360" y="30" width="80" height="40" as="geometry" />
        </mxCell>
        <mxCell id="XcRsSz3dHbmi5cUPa2XA-7" value="Check Room Availbility" style="ellipse;whiteSpace=wrap;html=1;" parent="XcRsSz3dHbmi5cUPa2XA-2" vertex="1">
          <mxGeometry x="140" y="90" width="110" height="40" as="geometry" />
        </mxCell>
        <mxCell id="XcRsSz3dHbmi5cUPa2XA-9" value="Order room" style="ellipse;whiteSpace=wrap;html=1;" parent="XcRsSz3dHbmi5cUPa2XA-2" vertex="1">
          <mxGeometry x="5" y="110" width="110" height="60" as="geometry" />
        </mxCell>
        <mxCell id="XcRsSz3dHbmi5cUPa2XA-10" value="Payment" style="ellipse;whiteSpace=wrap;html=1;" parent="XcRsSz3dHbmi5cUPa2XA-2" vertex="1">
          <mxGeometry x="480" y="345" width="80" height="40" as="geometry" />
        </mxCell>
        <mxCell id="Sf3XW1H4hBjx1v4OMdXL-1" value="Manage &amp;amp; Update&amp;nbsp;" style="ellipse;whiteSpace=wrap;html=1;" parent="XcRsSz3dHbmi5cUPa2XA-2" vertex="1">
          <mxGeometry x="730.5" y="110" width="119" height="50" as="geometry" />
        </mxCell>
        <mxCell id="Sf3XW1H4hBjx1v4OMdXL-6" value="ask for room and check booking" style="ellipse;whiteSpace=wrap;html=1;" parent="XcRsSz3dHbmi5cUPa2XA-2" vertex="1">
          <mxGeometry x="51.25" y="385" width="105.5" height="50" as="geometry" />
        </mxCell>
        <mxCell id="Sf3XW1H4hBjx1v4OMdXL-7" value="Check in and out guest" style="ellipse;whiteSpace=wrap;html=1;" parent="XcRsSz3dHbmi5cUPa2XA-2" vertex="1">
          <mxGeometry x="80" y="450" width="120" height="47.5" as="geometry" />
        </mxCell>
        <mxCell id="Sf3XW1H4hBjx1v4OMdXL-9" value="Check Balance" style="ellipse;whiteSpace=wrap;html=1;" parent="XcRsSz3dHbmi5cUPa2XA-2" vertex="1">
          <mxGeometry x="700" y="370" width="111" height="40" as="geometry" />
        </mxCell>
        <mxCell id="Sf3XW1H4hBjx1v4OMdXL-8" value="Transection" style="ellipse;whiteSpace=wrap;html=1;" parent="XcRsSz3dHbmi5cUPa2XA-2" vertex="1">
          <mxGeometry x="541" y="410" width="119" height="45" as="geometry" />
        </mxCell>
        <mxCell id="_IYdy7Do-wZ9eUBrCJ6A-1" value="&amp;lt;&amp;lt;include&amp;gt;&amp;gt;" style="html=1;verticalAlign=bottom;labelBackgroundColor=none;endArrow=open;endFill=0;dashed=1;rounded=0;entryX=0;entryY=0.5;entryDx=0;entryDy=0;exitX=1;exitY=0.5;exitDx=0;exitDy=0;" parent="XcRsSz3dHbmi5cUPa2XA-2" source="XcRsSz3dHbmi5cUPa2XA-10" target="Sf3XW1H4hBjx1v4OMdXL-9" edge="1">
          <mxGeometry width="160" relative="1" as="geometry">
            <mxPoint x="140" y="240" as="sourcePoint" />
            <mxPoint x="300" y="240" as="targetPoint" />
          </mxGeometry>
        </mxCell>
        <mxCell id="_IYdy7Do-wZ9eUBrCJ6A-9" value="view available room and price" style="ellipse;whiteSpace=wrap;html=1;" parent="XcRsSz3dHbmi5cUPa2XA-2" vertex="1">
          <mxGeometry x="530" y="230" width="120" height="50" as="geometry" />
        </mxCell>
        <mxCell id="_IYdy7Do-wZ9eUBrCJ6A-16" value="cash payment" style="ellipse;whiteSpace=wrap;html=1;" parent="XcRsSz3dHbmi5cUPa2XA-2" vertex="1">
          <mxGeometry x="410" y="455" width="90" height="45" as="geometry" />
        </mxCell>
        <mxCell id="_IYdy7Do-wZ9eUBrCJ6A-17" value="credit&amp;nbsp;debit payment" style="ellipse;whiteSpace=wrap;html=1;" parent="XcRsSz3dHbmi5cUPa2XA-2" vertex="1">
          <mxGeometry x="600" y="497.5" width="78" height="52" as="geometry" />
        </mxCell>
        <mxCell id="_IYdy7Do-wZ9eUBrCJ6A-19" value="&amp;lt;&amp;lt;include&amp;gt;&amp;gt;" style="html=1;verticalAlign=bottom;labelBackgroundColor=none;endArrow=open;endFill=0;dashed=1;rounded=0;entryX=1;entryY=0.5;entryDx=0;entryDy=0;exitX=0.7;exitY=0.033;exitDx=0;exitDy=0;exitPerimeter=0;" parent="XcRsSz3dHbmi5cUPa2XA-2" source="g6fRVF89N0frr8c6gZ4i-7" target="_IYdy7Do-wZ9eUBrCJ6A-22" edge="1">
          <mxGeometry width="160" relative="1" as="geometry">
            <mxPoint x="852" y="540" as="sourcePoint" />
            <mxPoint x="862" y="310" as="targetPoint" />
            <Array as="points">
              <mxPoint x="852" y="510" />
            </Array>
          </mxGeometry>
        </mxCell>
        <mxCell id="_IYdy7Do-wZ9eUBrCJ6A-20" value="&amp;lt;&amp;lt;extend&amp;gt;&amp;gt;" style="html=1;verticalAlign=bottom;labelBackgroundColor=none;endArrow=open;endFill=0;dashed=1;rounded=0;entryX=0.22;entryY=0.897;entryDx=0;entryDy=0;exitX=0.5;exitY=0;exitDx=0;exitDy=0;entryPerimeter=0;" parent="XcRsSz3dHbmi5cUPa2XA-2" source="_IYdy7Do-wZ9eUBrCJ6A-16" target="Sf3XW1H4hBjx1v4OMdXL-8" edge="1">
          <mxGeometry width="160" relative="1" as="geometry">
            <mxPoint x="-90" y="272.5" as="sourcePoint" />
            <mxPoint x="-173.28469254275115" y="226.68842702034817" as="targetPoint" />
            <Array as="points" />
          </mxGeometry>
        </mxCell>
        <mxCell id="_IYdy7Do-wZ9eUBrCJ6A-21" value="&amp;lt;&amp;lt;extend&amp;gt;&amp;gt;" style="html=1;verticalAlign=bottom;labelBackgroundColor=none;endArrow=open;endFill=0;dashed=1;rounded=0;entryX=0.735;entryY=1.001;entryDx=0;entryDy=0;exitX=0.5;exitY=0;exitDx=0;exitDy=0;entryPerimeter=0;" parent="XcRsSz3dHbmi5cUPa2XA-2" source="_IYdy7Do-wZ9eUBrCJ6A-17" target="Sf3XW1H4hBjx1v4OMdXL-8" edge="1">
          <mxGeometry width="160" relative="1" as="geometry">
            <mxPoint x="479" y="341.5" as="sourcePoint" />
            <mxPoint x="398.5298652683764" y="275.94865119801693" as="targetPoint" />
          </mxGeometry>
        </mxCell>
        <mxCell id="_IYdy7Do-wZ9eUBrCJ6A-22" value="verify" style="ellipse;whiteSpace=wrap;html=1;" parent="XcRsSz3dHbmi5cUPa2XA-2" vertex="1">
          <mxGeometry x="700" y="490" width="120" height="40" as="geometry" />
        </mxCell>
        <mxCell id="_IYdy7Do-wZ9eUBrCJ6A-25" value="check in and out&amp;nbsp;" style="ellipse;whiteSpace=wrap;html=1;" parent="XcRsSz3dHbmi5cUPa2XA-2" vertex="1">
          <mxGeometry x="740" y="240" width="100" height="60" as="geometry" />
        </mxCell>
        <mxCell id="_IYdy7Do-wZ9eUBrCJ6A-26" value="&amp;lt;&amp;lt;include&amp;gt;&amp;gt;" style="html=1;verticalAlign=bottom;labelBackgroundColor=none;endArrow=open;endFill=0;dashed=1;rounded=0;entryX=0.5;entryY=0;entryDx=0;entryDy=0;endSize=6;jumpSize=6;strokeWidth=1;exitX=0.5;exitY=1;exitDx=0;exitDy=0;" parent="XcRsSz3dHbmi5cUPa2XA-2" source="XcRsSz3dHbmi5cUPa2XA-4" target="XcRsSz3dHbmi5cUPa2XA-9" edge="1">
          <mxGeometry width="160" relative="1" as="geometry">
            <mxPoint x="400" y="80" as="sourcePoint" />
            <mxPoint x="350" y="130" as="targetPoint" />
            <Array as="points">
              <mxPoint x="380" y="80" />
              <mxPoint x="60" y="80" />
            </Array>
          </mxGeometry>
        </mxCell>
        <mxCell id="_IYdy7Do-wZ9eUBrCJ6A-27" value="&amp;lt;&amp;lt;include&amp;gt;&amp;gt;" style="html=1;verticalAlign=bottom;labelBackgroundColor=none;endArrow=open;endFill=0;dashed=1;rounded=0;exitX=0.928;exitY=0.825;exitDx=0;exitDy=0;exitPerimeter=0;entryX=0;entryY=0.5;entryDx=0;entryDy=0;" parent="XcRsSz3dHbmi5cUPa2XA-2" source="_IYdy7Do-wZ9eUBrCJ6A-9" target="_IYdy7Do-wZ9eUBrCJ6A-25" edge="1">
          <mxGeometry width="160" relative="1" as="geometry">
            <mxPoint x="310" y="140" as="sourcePoint" />
            <mxPoint x="750" y="260" as="targetPoint" />
          </mxGeometry>
        </mxCell>
        <mxCell id="_IYdy7Do-wZ9eUBrCJ6A-31" value="&amp;lt;&amp;lt;include&amp;gt;&amp;gt;" style="html=1;verticalAlign=bottom;labelBackgroundColor=none;endArrow=open;endFill=0;dashed=1;rounded=0;exitX=1.007;exitY=0.707;exitDx=0;exitDy=0;exitPerimeter=0;entryX=0.139;entryY=-0.069;entryDx=0;entryDy=0;entryPerimeter=0;" parent="XcRsSz3dHbmi5cUPa2XA-2" source="XcRsSz3dHbmi5cUPa2XA-7" target="g6fRVF89N0frr8c6gZ4i-6" edge="1">
          <mxGeometry width="160" relative="1" as="geometry">
            <mxPoint x="300" y="130" as="sourcePoint" />
            <mxPoint x="310" y="170" as="targetPoint" />
            <Array as="points">
              <mxPoint x="267" y="118" />
            </Array>
          </mxGeometry>
        </mxCell>
        <mxCell id="_IYdy7Do-wZ9eUBrCJ6A-32" value="&amp;lt;&amp;lt;include&amp;gt;&amp;gt;" style="html=1;verticalAlign=bottom;labelBackgroundColor=none;endArrow=open;endFill=0;dashed=1;rounded=0;exitX=1;exitY=0.75;exitDx=0;exitDy=0;" parent="XcRsSz3dHbmi5cUPa2XA-2" source="g6fRVF89N0frr8c6gZ4i-6" target="_IYdy7Do-wZ9eUBrCJ6A-9" edge="1">
          <mxGeometry width="160" relative="1" as="geometry">
            <mxPoint x="430" y="185" as="sourcePoint" />
            <mxPoint x="360" y="140" as="targetPoint" />
          </mxGeometry>
        </mxCell>
        <mxCell id="_IYdy7Do-wZ9eUBrCJ6A-70" value="&amp;lt;&amp;lt;include&amp;gt;&amp;gt;" style="html=1;verticalAlign=bottom;labelBackgroundColor=none;endArrow=open;endFill=0;dashed=1;rounded=0;exitX=1;exitY=0;exitDx=0;exitDy=0;entryX=0;entryY=1;entryDx=0;entryDy=0;" parent="XcRsSz3dHbmi5cUPa2XA-2" source="Sf3XW1H4hBjx1v4OMdXL-6" target="g6fRVF89N0frr8c6gZ4i-6" edge="1">
          <mxGeometry width="160" relative="1" as="geometry">
            <mxPoint x="161.25000000000864" y="477.5" as="sourcePoint" />
            <mxPoint x="309.03999999999996" y="223.2800000000002" as="targetPoint" />
            <Array as="points">
              <mxPoint x="250" y="392" />
            </Array>
          </mxGeometry>
        </mxCell>
        <mxCell id="_IYdy7Do-wZ9eUBrCJ6A-71" value="&amp;lt;&amp;lt;include&amp;gt;&amp;gt;" style="html=1;verticalAlign=bottom;labelBackgroundColor=none;endArrow=open;endFill=0;dashed=1;rounded=0;entryX=1;entryY=0.5;entryDx=0;entryDy=0;exitX=0;exitY=0.5;exitDx=0;exitDy=0;" parent="XcRsSz3dHbmi5cUPa2XA-2" source="_IYdy7Do-wZ9eUBrCJ6A-22" target="Sf3XW1H4hBjx1v4OMdXL-8" edge="1">
          <mxGeometry width="160" relative="1" as="geometry">
            <mxPoint x="861.9999999999995" y="340" as="sourcePoint" />
            <mxPoint x="862.4264068711932" y="204.14213562373106" as="targetPoint" />
          </mxGeometry>
        </mxCell>
        <mxCell id="_IYdy7Do-wZ9eUBrCJ6A-72" value="&amp;lt;&amp;lt;include&amp;gt;&amp;gt;" style="html=1;verticalAlign=bottom;labelBackgroundColor=none;endArrow=open;endFill=0;dashed=1;rounded=0;exitX=0.5;exitY=1;exitDx=0;exitDy=0;entryX=0.965;entryY=0.318;entryDx=0;entryDy=0;entryPerimeter=0;" parent="XcRsSz3dHbmi5cUPa2XA-2" source="_IYdy7Do-wZ9eUBrCJ6A-25" target="XcRsSz3dHbmi5cUPa2XA-10" edge="1">
          <mxGeometry width="160" relative="1" as="geometry">
            <mxPoint x="518.44" y="141.84000000000015" as="sourcePoint" />
            <mxPoint x="661.4701347316081" y="176.55134880198875" as="targetPoint" />
          </mxGeometry>
        </mxCell>
        <mxCell id="_IYdy7Do-wZ9eUBrCJ6A-74" value="pay bill" style="ellipse;whiteSpace=wrap;html=1;" parent="XcRsSz3dHbmi5cUPa2XA-2" vertex="1">
          <mxGeometry x="350" y="519" width="70" height="50" as="geometry" />
        </mxCell>
        <mxCell id="_IYdy7Do-wZ9eUBrCJ6A-75" value="&amp;lt;&amp;lt;include&amp;gt;&amp;gt;" style="html=1;verticalAlign=bottom;labelBackgroundColor=none;endArrow=open;endFill=0;dashed=1;rounded=0;entryX=0.944;entryY=0.168;entryDx=0;entryDy=0;entryPerimeter=0;exitX=0;exitY=1;exitDx=0;exitDy=0;" parent="XcRsSz3dHbmi5cUPa2XA-2" source="_IYdy7Do-wZ9eUBrCJ6A-17" target="_IYdy7Do-wZ9eUBrCJ6A-74" edge="1">
          <mxGeometry width="160" relative="1" as="geometry">
            <mxPoint x="861.9999999999995" y="340" as="sourcePoint" />
            <mxPoint x="862.4264068711932" y="204.14213562373106" as="targetPoint" />
          </mxGeometry>
        </mxCell>
        <mxCell id="_IYdy7Do-wZ9eUBrCJ6A-76" value="&amp;lt;&amp;lt;include&amp;gt;&amp;gt;" style="html=1;verticalAlign=bottom;labelBackgroundColor=none;endArrow=open;endFill=0;dashed=1;rounded=0;entryX=0.246;entryY=0.07;entryDx=0;entryDy=0;entryPerimeter=0;" parent="XcRsSz3dHbmi5cUPa2XA-2" source="_IYdy7Do-wZ9eUBrCJ6A-16" target="_IYdy7Do-wZ9eUBrCJ6A-74" edge="1">
          <mxGeometry width="160" relative="1" as="geometry">
            <mxPoint x="871.9999999999995" y="350" as="sourcePoint" />
            <mxPoint x="872.4264068711932" y="214.14213562373106" as="targetPoint" />
          </mxGeometry>
        </mxCell>
        <mxCell id="_IYdy7Do-wZ9eUBrCJ6A-33" value="&amp;lt;&amp;lt;include&amp;gt;&amp;gt;" style="html=1;verticalAlign=bottom;labelBackgroundColor=none;endArrow=open;endFill=0;dashed=1;rounded=0;exitX=1;exitY=0.5;exitDx=0;exitDy=0;entryX=0.25;entryY=1;entryDx=0;entryDy=0;" parent="XcRsSz3dHbmi5cUPa2XA-2" source="Sf3XW1H4hBjx1v4OMdXL-7" target="g6fRVF89N0frr8c6gZ4i-6" edge="1">
          <mxGeometry width="160" relative="1" as="geometry">
            <mxPoint x="261.9499999999998" y="150.6400000000001" as="sourcePoint" />
            <mxPoint x="340" y="230" as="targetPoint" />
            <Array as="points">
              <mxPoint x="280" y="470" />
            </Array>
          </mxGeometry>
        </mxCell>
        <mxCell id="_IYdy7Do-wZ9eUBrCJ6A-78" value="&amp;lt;&amp;lt;include&amp;gt;&amp;gt;" style="html=1;verticalAlign=bottom;labelBackgroundColor=none;endArrow=open;endFill=0;dashed=1;rounded=0;entryX=1;entryY=0;entryDx=0;entryDy=0;exitX=0;exitY=0.5;exitDx=0;exitDy=0;" parent="XcRsSz3dHbmi5cUPa2XA-2" target="g6fRVF89N0frr8c6gZ4i-6" edge="1" source="Sf3XW1H4hBjx1v4OMdXL-1">
          <mxGeometry x="0.3061" width="160" relative="1" as="geometry">
            <mxPoint x="550" y="520" as="sourcePoint" />
            <mxPoint x="430" y="170" as="targetPoint" />
            <Array as="points" />
            <mxPoint as="offset" />
          </mxGeometry>
        </mxCell>
        <mxCell id="vngWo0SiOwcMVRFuQw_g-1" value="add room" style="ellipse;whiteSpace=wrap;html=1;" parent="XcRsSz3dHbmi5cUPa2XA-2" vertex="1">
          <mxGeometry x="130" y="180" width="80" height="50" as="geometry" />
        </mxCell>
        <mxCell id="vngWo0SiOwcMVRFuQw_g-2" value="remove room or Cancel reservation" style="ellipse;whiteSpace=wrap;html=1;" parent="XcRsSz3dHbmi5cUPa2XA-2" vertex="1">
          <mxGeometry x="10" y="240" width="100" height="68" as="geometry" />
        </mxCell>
        <mxCell id="vngWo0SiOwcMVRFuQw_g-3" value="&amp;lt;&amp;lt;extend&amp;gt;&amp;gt;" style="html=1;verticalAlign=bottom;labelBackgroundColor=none;endArrow=open;endFill=0;dashed=1;rounded=0;entryX=0.937;entryY=0.785;entryDx=0;entryDy=0;exitX=0;exitY=0;exitDx=0;exitDy=0;entryPerimeter=0;" parent="XcRsSz3dHbmi5cUPa2XA-2" source="vngWo0SiOwcMVRFuQw_g-1" target="XcRsSz3dHbmi5cUPa2XA-9" edge="1">
          <mxGeometry width="160" relative="1" as="geometry">
            <mxPoint x="20.000000000000455" y="226.25" as="sourcePoint" />
            <mxPoint x="36.03860885356198" y="151.1746691013252" as="targetPoint" />
          </mxGeometry>
        </mxCell>
        <mxCell id="vngWo0SiOwcMVRFuQw_g-4" value="&amp;lt;&amp;lt;extend&amp;gt;&amp;gt;" style="html=1;verticalAlign=bottom;labelBackgroundColor=none;endArrow=open;endFill=0;dashed=1;rounded=0;entryX=0.756;entryY=0.981;entryDx=0;entryDy=0;exitX=0.778;exitY=0.07;exitDx=0;exitDy=0;entryPerimeter=0;exitPerimeter=0;" parent="XcRsSz3dHbmi5cUPa2XA-2" source="vngWo0SiOwcMVRFuQw_g-2" target="XcRsSz3dHbmi5cUPa2XA-9" edge="1">
          <mxGeometry width="160" relative="1" as="geometry">
            <mxPoint x="30.000000000000455" y="236.25" as="sourcePoint" />
            <mxPoint x="46.03860885356198" y="161.1746691013252" as="targetPoint" />
          </mxGeometry>
        </mxCell>
        <mxCell id="vngWo0SiOwcMVRFuQw_g-5" value="&amp;lt;&amp;lt;include&amp;gt;&amp;gt;" style="html=1;verticalAlign=bottom;labelBackgroundColor=none;endArrow=open;endFill=0;dashed=1;rounded=0;exitX=1;exitY=0.5;exitDx=0;exitDy=0;entryX=0;entryY=0.25;entryDx=0;entryDy=0;" parent="XcRsSz3dHbmi5cUPa2XA-2" source="vngWo0SiOwcMVRFuQw_g-2" target="g6fRVF89N0frr8c6gZ4i-6" edge="1">
          <mxGeometry width="160" relative="1" as="geometry">
            <mxPoint x="240" y="185" as="sourcePoint" />
            <mxPoint x="310" y="200" as="targetPoint" />
            <Array as="points">
              <mxPoint x="190" y="274" />
            </Array>
          </mxGeometry>
        </mxCell>
        <mxCell id="vngWo0SiOwcMVRFuQw_g-6" value="&amp;lt;&amp;lt;include&amp;gt;&amp;gt;" style="html=1;verticalAlign=bottom;labelBackgroundColor=none;endArrow=open;endFill=0;dashed=1;rounded=0;entryX=0.5;entryY=1;entryDx=0;entryDy=0;exitX=1;exitY=0;exitDx=0;exitDy=0;" parent="XcRsSz3dHbmi5cUPa2XA-2" source="vngWo0SiOwcMVRFuQw_g-1" target="XcRsSz3dHbmi5cUPa2XA-7" edge="1">
          <mxGeometry width="160" relative="1" as="geometry">
            <mxPoint x="380" y="180" as="sourcePoint" />
            <mxPoint x="380.1200000000001" y="89.45000000000005" as="targetPoint" />
          </mxGeometry>
        </mxCell>
        <mxCell id="vngWo0SiOwcMVRFuQw_g-7" value="&amp;lt;&amp;lt;include&amp;gt;&amp;gt;" style="html=1;verticalAlign=bottom;labelBackgroundColor=none;endArrow=open;endFill=0;dashed=1;rounded=0;exitX=0;exitY=0.5;exitDx=0;exitDy=0;entryX=0.854;entryY=1.013;entryDx=0;entryDy=0;entryPerimeter=0;" parent="XcRsSz3dHbmi5cUPa2XA-2" source="_IYdy7Do-wZ9eUBrCJ6A-74" edge="1" target="g6fRVF89N0frr8c6gZ4i-6">
          <mxGeometry width="160" relative="1" as="geometry">
            <mxPoint x="573.5852213316425" y="292.99139787847776" as="sourcePoint" />
            <mxPoint x="430" y="230" as="targetPoint" />
            <Array as="points" />
          </mxGeometry>
        </mxCell>
        <mxCell id="g6fRVF89N0frr8c6gZ4i-3" value="&amp;lt;&amp;lt;include&amp;gt;&amp;gt;" style="html=1;verticalAlign=bottom;labelBackgroundColor=none;endArrow=open;endFill=0;dashed=1;rounded=0;entryX=0.399;entryY=-0.043;entryDx=0;entryDy=0;exitX=0.441;exitY=1.134;exitDx=0;exitDy=0;entryPerimeter=0;exitPerimeter=0;" edge="1" parent="XcRsSz3dHbmi5cUPa2XA-2" source="Sf3XW1H4hBjx1v4OMdXL-9" target="_IYdy7Do-wZ9eUBrCJ6A-22">
          <mxGeometry width="160" relative="1" as="geometry">
            <mxPoint x="660" y="390" as="sourcePoint" />
            <mxPoint x="709.9999999999977" y="400" as="targetPoint" />
          </mxGeometry>
        </mxCell>
        <mxCell id="g6fRVF89N0frr8c6gZ4i-6" value="hotel data base" style="html=1;dashed=0;whitespace=wrap;shape=partialRectangle;right=0;" vertex="1" parent="XcRsSz3dHbmi5cUPa2XA-2">
          <mxGeometry x="250" y="260" width="120" height="50" as="geometry" />
        </mxCell>
        <mxCell id="g6fRVF89N0frr8c6gZ4i-7" value="bank data base" style="html=1;dashed=0;whitespace=wrap;shape=partialRectangle;right=0;" vertex="1" parent="XcRsSz3dHbmi5cUPa2XA-2">
          <mxGeometry x="782" y="539" width="100" height="30" as="geometry" />
        </mxCell>
        <mxCell id="g6fRVF89N0frr8c6gZ4i-10" value="log out" style="ellipse;whiteSpace=wrap;html=1;" vertex="1" parent="XcRsSz3dHbmi5cUPa2XA-2">
          <mxGeometry x="345" y="140" width="75" height="40" as="geometry" />
        </mxCell>
        <mxCell id="g6fRVF89N0frr8c6gZ4i-9" value="&amp;lt;&amp;lt;extend&amp;gt;&amp;gt;" style="html=1;verticalAlign=bottom;labelBackgroundColor=none;endArrow=open;endFill=0;dashed=1;rounded=0;exitX=1;exitY=0.5;exitDx=0;exitDy=0;" edge="1" parent="XcRsSz3dHbmi5cUPa2XA-2" source="g6fRVF89N0frr8c6gZ4i-10">
          <mxGeometry width="160" relative="1" as="geometry">
            <mxPoint x="480" y="90" as="sourcePoint" />
            <mxPoint x="420" y="70" as="targetPoint" />
          </mxGeometry>
        </mxCell>
        <mxCell id="g6fRVF89N0frr8c6gZ4i-11" value="registers" style="ellipse;whiteSpace=wrap;html=1;" vertex="1" parent="XcRsSz3dHbmi5cUPa2XA-2">
          <mxGeometry x="570" y="70" width="80" height="40" as="geometry" />
        </mxCell>
        <mxCell id="g6fRVF89N0frr8c6gZ4i-12" value="&amp;lt;&amp;lt;include&amp;gt;&amp;gt;" style="html=1;verticalAlign=bottom;labelBackgroundColor=none;endArrow=open;endFill=0;dashed=1;rounded=0;entryX=1;entryY=1;entryDx=0;entryDy=0;exitX=0;exitY=0.5;exitDx=0;exitDy=0;" edge="1" parent="XcRsSz3dHbmi5cUPa2XA-2" source="g6fRVF89N0frr8c6gZ4i-11" target="XcRsSz3dHbmi5cUPa2XA-4">
          <mxGeometry width="160" relative="1" as="geometry">
            <mxPoint x="206.74999999999977" y="180" as="sourcePoint" />
            <mxPoint x="205" y="140" as="targetPoint" />
          </mxGeometry>
        </mxCell>
        <mxCell id="Sf3XW1H4hBjx1v4OMdXL-10" style="edgeStyle=orthogonalEdgeStyle;rounded=0;orthogonalLoop=1;jettySize=auto;html=1;exitX=0.5;exitY=0;exitDx=0;exitDy=0;exitPerimeter=0;entryX=0;entryY=0.5;entryDx=0;entryDy=0;" parent="1" source="XcRsSz3dHbmi5cUPa2XA-3" target="Sf3XW1H4hBjx1v4OMdXL-6" edge="1">
          <mxGeometry relative="1" as="geometry" />
        </mxCell>
        <mxCell id="Sf3XW1H4hBjx1v4OMdXL-11" style="edgeStyle=orthogonalEdgeStyle;rounded=0;orthogonalLoop=1;jettySize=auto;html=1;exitX=0.75;exitY=0.1;exitDx=0;exitDy=0;exitPerimeter=0;" parent="1" source="XcRsSz3dHbmi5cUPa2XA-3" target="Sf3XW1H4hBjx1v4OMdXL-7" edge="1">
          <mxGeometry relative="1" as="geometry">
            <Array as="points">
              <mxPoint x="190" y="296" />
              <mxPoint x="190" y="296" />
            </Array>
          </mxGeometry>
        </mxCell>
        <mxCell id="XcRsSz3dHbmi5cUPa2XA-3" value="reception" style="shape=umlActor;verticalLabelPosition=bottom;verticalAlign=top;html=1;outlineConnect=0;" parent="1" vertex="1">
          <mxGeometry x="120" y="280" width="30" height="60" as="geometry" />
        </mxCell>
        <mxCell id="g6fRVF89N0frr8c6gZ4i-2" style="edgeStyle=orthogonalEdgeStyle;rounded=0;orthogonalLoop=1;jettySize=auto;html=1;exitX=0.5;exitY=0;exitDx=0;exitDy=0;exitPerimeter=0;entryX=1;entryY=0.5;entryDx=0;entryDy=0;" edge="1" parent="1" source="XcRsSz3dHbmi5cUPa2XA-19" target="Sf3XW1H4hBjx1v4OMdXL-9">
          <mxGeometry relative="1" as="geometry" />
        </mxCell>
        <mxCell id="XcRsSz3dHbmi5cUPa2XA-19" value="Bank" style="shape=umlActor;verticalLabelPosition=bottom;verticalAlign=top;html=1;outlineConnect=0;" parent="1" vertex="1">
          <mxGeometry x="1110" y="310" width="30" height="60" as="geometry" />
        </mxCell>
        <mxCell id="g6fRVF89N0frr8c6gZ4i-8" style="edgeStyle=orthogonalEdgeStyle;rounded=0;orthogonalLoop=1;jettySize=auto;html=1;exitX=0;exitY=1;exitDx=0;exitDy=0;exitPerimeter=0;entryX=1;entryY=1;entryDx=0;entryDy=0;" edge="1" parent="1" source="XcRsSz3dHbmi5cUPa2XA-22" target="Sf3XW1H4hBjx1v4OMdXL-1">
          <mxGeometry relative="1" as="geometry" />
        </mxCell>
        <mxCell id="XcRsSz3dHbmi5cUPa2XA-22" value="Manager" style="shape=umlActor;verticalLabelPosition=bottom;verticalAlign=top;html=1;outlineConnect=0;" parent="1" vertex="1">
          <mxGeometry x="1120" y="-90" width="30" height="60" as="geometry" />
        </mxCell>
        <mxCell id="_IYdy7Do-wZ9eUBrCJ6A-79" value="" style="endArrow=classic;html=1;rounded=0;entryX=1;entryY=0.5;entryDx=0;entryDy=0;exitX=0.5;exitY=0;exitDx=0;exitDy=0;exitPerimeter=0;" parent="1" source="XcRsSz3dHbmi5cUPa2XA-22" target="XcRsSz3dHbmi5cUPa2XA-4" edge="1">
          <mxGeometry width="50" height="50" relative="1" as="geometry">
            <mxPoint x="1050" y="320" as="sourcePoint" />
            <mxPoint x="1058.9999999999995" y="-100" as="targetPoint" />
            <Array as="points">
              <mxPoint x="1135" y="-110" />
            </Array>
          </mxGeometry>
        </mxCell>
      </root>
    </mxGraphModel>
  </diagram>
</mxfile>
